# xmcd
#
# Track frame offsets: 
#        150
#        12995
#        26817
#        41806
#        55304
#        68146
#        82618
#        97940
#        110771
#        124820
#        135252
#        150195
#        164251
#        178627
#        190972
#        206492
#        220238
#        234355
#        245010
#        260296
#
# Disc length: 3633 seconds
#
# Revision: 1
# Processed by: cddbd v1.5.2PL0 Copyright (c) Steve Scherf et al.
# Submitted via: ExactAudioCopy v1.3
#
DISCID=080e2f14
DTITLE=Fats Waller - A Handful of Fats
DYEAR=2004
DGENRE=Jazz
TTITLE0=Handful of Keys
TTITLE1=Ain't Misbehavin'
TTITLE2=I'm Crazy About My Baby
TTITLE3=Viper's Drag
TTITLE4=Twelfth Street Rag
TTITLE5=Keepin' Out of Mischief Now
TTITLE6=Tea for Two
TTITLE7=The Joint Is Jumpin'
TTITLE8=Two Sleepy People
TTITLE9=Hold Tight (Want Some Seafood Mama)
TTITLE10=Honey Hush
TTITLE11=Your Feet's Too Big
TTITLE12=Squeeze Me
TTITLE13=Darktown Strutter's Ball
TTITLE14=Honeysuckle Rose
TTITLE15=Georgia On My Mind
TTITLE16=Rockin' Chair
TTITLE17=Carolina Shout
TTITLE18=The Jitterbug Waltz
TTITLE19=Come and Get It
EXTD=YEAR: 2004
EXTT0=
EXTT1=
EXTT2=
EXTT3=
EXTT4=
EXTT5=
EXTT6=
EXTT7=
EXTT8=
EXTT9=
EXTT10=
EXTT11=
EXTT12=
EXTT13=
EXTT14=
EXTT15=
EXTT16=
EXTT17=
EXTT18=
EXTT19=
PLAYORDER=
